<?xml version="1.0" encoding="utf-8"?>
<svg version="1.1" xmlns="http://www.w3.org/2000/svg" xmlns:xlink="http://www.w3.org/1999/xlink" x="0px" y="0px"
	 viewBox="0 0 162 36" style="enable-background:new 0 0 162 36;" xml:space="preserve">
<g>
	<path style="fill:#808080;" d="M99.4,3.6c1.8,1.8,3.8,3.3,6.1,4.4L105,8.9c-2.3-1.1-4.3-2.6-6-4.3c-1.5,1.7-3.5,3.2-6,4.4l-0.5-1
		C95,6.8,97,5.4,98.6,3.6H99.4z M102.9,8v1h-3.4v2.4h4v1h-4V15h5.3v1H93.2v-1h5.3v-2.6h-4.1v-1h4.1V9h-3.4V8H102.9z"/>
	<path style="fill:#808080;" d="M108.5,8.7V5.4h-1.8V4.5h4.4v0.9h-1.7v3.3h1.4v1h-1.4v2.9c0.6-0.2,1.1-0.5,1.7-0.8v1
		c-1.4,0.7-2.8,1.3-4.4,1.8l-0.3-1c0.7-0.2,1.3-0.3,2-0.6V9.7h-1.6v-1H108.5z M114.5,6V3.6h1V6h2.4c-0.4-0.5-1-1.1-1.7-1.7l0.6-0.6
		c0.7,0.5,1.3,1.1,1.8,1.6L118,6h0.8v1h-3.3v1.3c0.2,0.7,0.5,1.3,0.7,1.9c0.6-0.7,1.2-1.5,1.7-2.3l0.8,0.6c-0.7,1-1.4,1.9-2,2.6
		c0.7,1.3,1.6,2.4,2.7,3.4l-0.7,0.8c-1.4-1.3-2.5-2.9-3.2-4.8v4.6c0,0.8-0.4,1.2-1.2,1.2h-1.5l-0.2-1c0.5,0,1,0.1,1.4,0.1
		s0.5-0.2,0.5-0.5v-3.5c-0.9,1.4-2,2.5-3.2,3.4l-0.5-0.9c1.4-1,2.7-2.3,3.7-3.9V7h-3.2V6H114.5z M113.7,10.4l-0.7,0.5
		c-0.4-0.7-0.9-1.5-1.6-2.4l0.8-0.5C112.8,9,113.3,9.8,113.7,10.4z"/>
	<path style="fill:#808080;" d="M120.8,10.3l-0.3-1.1c1.5-1.7,2.6-3.7,3.3-5.8l1,0.4C124.4,5,123.9,6,123.3,7v9.4h-1V8.6
		C121.8,9.2,121.3,9.8,120.8,10.3z M126.6,6.5V3.6h1v2.9h2.5V3.6h1v2.9h1.9v1h-1.9v3.3h2.3v1h-9v-1h2.2V7.5h-1.8v-1H126.6z
		 M127.9,12.8c-0.7,1.4-1.6,2.6-2.6,3.6l-0.9-0.6c1-0.9,1.8-2.1,2.5-3.4L127.9,12.8z M130.1,10.8V7.5h-2.5v3.3H130.1z M133.3,15.7
		l-0.9,0.6c-0.6-1.1-1.5-2.3-2.6-3.6l0.8-0.5C131.7,13.6,132.6,14.8,133.3,15.7z"/>
	<path style="fill:#808080;" d="M142.1,4.9h5.1v1h-10.4V9c-0.1,3.1-0.5,5.5-1.4,7.4l-0.8-0.7c0.8-1.6,1.2-3.8,1.2-6.7V4.9h5.2
		c-0.2-0.4-0.5-0.9-0.8-1.3l1.1-0.2C141.6,3.9,141.9,4.4,142.1,4.9z M143,14.8c0.9-2,1.6-4.4,2.3-7.4l1,0.3c-0.6,2.7-1.3,5-2.2,7.1
		h3v1h-9.9v-1H143z M140.2,13.3l-1,0.2c-0.4-1.8-0.9-3.5-1.4-5.1l0.9-0.3C139.2,9.6,139.7,11.3,140.2,13.3z M142.7,12.4l-1,0.2
		c-0.3-1.8-0.7-3.6-1.2-5.3l0.9-0.3C141.8,8.7,142.3,10.4,142.7,12.4z"/>
	<path style="fill:#808080;" d="M151,3.8c-0.1,0.5-0.2,0.9-0.3,1.4h2.1v1h-2.4c-0.3,1-0.7,1.8-1.1,2.6l-0.8-0.5
		c0.7-1.4,1.2-3,1.5-4.7L151,3.8z M152.6,8v0.9h-1.1v1.8h1.5v0.9h-1.5v3.3c0.4-0.2,0.8-0.5,1.2-0.8l0.2,0.9
		c-0.7,0.5-1.4,0.9-2.3,1.2l-0.4-0.8c0.2-0.1,0.3-0.3,0.3-0.4v-3.2h-1.6v-0.9h1.6v-2h-0.7V8H152.6z M161.4,15.2l-0.3,1h-1.9
		c-0.4,0-0.9,0-1.3,0c-0.6,0-1.2-0.1-1.7-0.3s-0.9-0.5-1.2-0.9c-0.2-0.2-0.3-0.3-0.5-0.3s-0.7,0.5-1.3,1.7l-0.6-0.8
		c0.6-0.9,1.1-1.5,1.5-1.7V9.2H153V8.3h2.1V14c0.1,0.1,0.1,0.1,0.2,0.2c0.3,0.4,0.6,0.6,1.1,0.9c0.4,0.2,0.9,0.3,1.4,0.3
		s1.1,0,1.6,0C160.1,15.2,160.8,15.2,161.4,15.2z M155.3,6.1l-0.8,0.5c-0.4-0.7-0.9-1.5-1.5-2.3l0.7-0.5
		C154.5,4.7,155,5.4,155.3,6.1z M158.4,11.5V9.7h-2.3l-0.2-0.8c0.5-0.8,0.9-1.7,1.3-2.9h-1.4V5.1h1.7c0.1-0.5,0.3-1,0.4-1.6l0.9,0.2
		c-0.1,0.5-0.2,0.9-0.4,1.4h2.7V6h-3c-0.4,1.1-0.8,2-1.2,2.8h1.4V7h0.9v1.9h1.6v0.9h-1.6v1.7h2v0.9h-2v2.3h-0.9v-2.3h-2.6v-0.9
		C155.7,11.5,158.4,11.5,158.4,11.5z"/>
	<path style="fill:#808080;" d="M96.7,23.8c0.2-0.6,0.3-1.1,0.4-1.7h-3.5v-0.9h3.7c0.1-0.6,0.2-1.1,0.3-1.7l1,0.1
		c-0.1,0.6-0.2,1.1-0.3,1.6h6v0.9h-6.2c-0.1,0.6-0.3,1.2-0.4,1.7h7.5v1h-7.8c-0.2,0.7-0.4,1.3-0.6,1.8h6.7v0.9
		c-0.7,1-1.7,2.1-3.2,3.1c0.8,0.3,1.7,0.7,2.4,1l-0.6,0.9c-2.1-1-4.3-1.8-6.5-2.5l0.5-0.8c1.1,0.3,2.1,0.6,3,0.9
		c1.3-0.8,2.3-1.7,3.1-2.7h-6.9c0.3-0.9,0.7-1.8,1-2.8h-3.7v-1h4.1V23.8z"/>
	<path style="fill:#808080;" d="M112,19.7v11.1h2V19.7h1v11.1h4.2v1h-12.4v-1h4.2V19.7H112z M110,28.7l-1,0.3
		c-0.5-2.2-1.1-4.4-1.9-6.5l0.9-0.3C108.7,24.1,109.4,26.3,110,28.7z M118.8,22.5c-0.6,2.4-1.3,4.6-2.1,6.4l-0.9-0.3
		c0.8-1.7,1.5-3.8,2.1-6.3L118.8,22.5z"/>
	<path style="fill:#808080;" d="M132.7,20.2v1h-5.2v5.3h5.7v1h-5.7v5h-1v-5h-5.6v-1h5.6v-5.3h-5.1v-1H132.7z M124.6,25.3l-0.9,0.5
		c-0.5-1.2-1-2.3-1.5-3.2l0.9-0.5C123.6,23,124.1,24.1,124.6,25.3z M131.9,22.4c-0.4,1.1-1,2.2-1.7,3.2l-0.9-0.5
		c0.7-1.1,1.2-2.2,1.6-3.2L131.9,22.4z"/>
	<path style="fill:#808080;" d="M135.1,24.2c1.2-0.4,2.8-2,4.6-4.7l1,0.4c-1.3,1.8-2.5,3.2-3.8,4.3c2.7-0.1,5.2-0.3,7.6-0.5
		c-0.5-0.8-1.1-1.5-1.6-2.1l0.9-0.4c1.2,1.4,2.3,3,3.4,4.7l-1,0.5c-0.4-0.6-0.7-1.1-1-1.7c-3,0.3-6.2,0.5-9.9,0.6L135.1,24.2z
		 M145.7,32.4h-1v-0.7h-7.3v0.7h-1v-5.8h9.4L145.7,32.4L145.7,32.4z M144.7,30.7v-3.2h-7.3v3.2H144.7z"/>
</g>
<g>
	<path style="fill:#053CA5;" d="M12.2,22.4h1.6l0.6-3.2h-1.6l1.3-7.1h-3.6l-1.3,7.1H6.7l3-11.1h6.7L16.9,5h-6.4l1-4h-4l-1,4H2.6
		L2.1,8.1h3.6L1.9,22.4h6.7L8,26.3H1.2l-0.6,3.2h6.7l-1,5.5H10l1-5.5h1.6l0.6-3.2h-1.6L12.2,22.4z M36.7,1h-3.6L35,5h-3.5l0.7-4
		h-4.3l-0.7,4h-8.3l-0.6,3.2h8.3l-0.4,2.4h-8.3L13.6,35h4.3l1.3-7.5h4L21.9,35h4.3l1.3-7.5h4L30.2,35h4.3l4.3-24.5h-8.3l0.4-2.4H40
		l0,0l0,0L36.7,1z M23.7,24.3h-4l0.8-4.3h4L23.7,24.3z M25.1,16.8h-4l0.6-3.2h4L25.1,16.8z M32,24.3h-4l0.8-4.3h4L32,24.3z
		 M33.9,13.7l-0.6,3.2h-4l0.6-3.2H33.9z M52.5,1l-0.9,5.1h-3.2l-0.7,4h3.2l-3.7,21H44l-0.7,4h7.5l6-34L52.5,1L52.5,1z M79.2,13.7
		l-1.6,3.5l-2.2-9.1h9L81.1,1h-3.6l0,0l0,0l1.8,4h-4.7l-1-4h-4.3l1,4H58.5l0,0l0,0v0.2L53.2,35h4.3l2.7-15.3h5.5l-2,11.4h-2l-0.7,4
		h6.3L70.5,17l0,0l0.1-0.4h-9.9l1.5-8.4l0,0H71l3.8,15.4l-5,11.4h4.3l2.3-5.2l1.3,5.2H82l-2.8-11.5l4.4-9.8H79.2z"/>
</g>
</svg>
