<?xml version="1.0" encoding="utf-8"?>
<!-- Generator: Adobe Illustrator 21.0.0, SVG Export Plug-In . SVG Version: 6.00 Build 0)  -->
<svg version="1.1" id="Group_33" xmlns="http://www.w3.org/2000/svg" xmlns:xlink="http://www.w3.org/1999/xlink" x="0px" y="0px"
	 viewBox="0 0 50 50" style="enable-background:new 0 0 50 50;" xml:space="preserve">
<path id="Path_22" d="M2,18v-2H0v4h2V18z"/>
<path id="Path_23" d="M4,14h10V0H0v14H4z M2,10V2h10v10H2V10z"/>
<path id="Path_24" d="M2,24H0v2h6v4h2v-6H4v-2H2V24z"/>
<path id="Path_25" d="M4,28H2v6h4v-4H4V28z"/>
<path id="Path_26" d="M8,10h2V4H4v6H8z"/>
<path id="Path_27" d="M6,40H4v6h6v-6H6z"/>
<path id="Path_28" d="M10,18v2h2v-2h2v-2H4v6h2v-2h2v-2H10z"/>
<rect id="Rectangle_31" x="8" y="20" width="2" height="2"/>
<rect id="Rectangle_32" x="8" y="32" width="2" height="2"/>
<rect id="Rectangle_33" x="10" y="22" width="2" height="2"/>
<rect id="Rectangle_34" x="10" y="26" width="2" height="2"/>
<path id="Path_29" d="M10,36H0v14h14V36H10z M12,40v8H2V38h10V40z"/>
<rect id="Rectangle_35" x="12" y="20" width="2" height="2"/>
<rect id="Rectangle_36" x="12" y="24" width="2" height="2"/>
<path id="Path_30" d="M16,30h2v-2h2v-2h2v-2h-2v-2h-2v2h-2v4h-4v2h2v2h-2v2h4V30z"/>
<path id="Path_31" d="M16,4v12h2V6h2V4H16z"/>
<path id="Path_32" d="M20,20h2v-2h-6v4h2v-2H20z"/>
<path id="Path_33" d="M18,34h-2v2h4v-2H18z"/>
<rect id="Rectangle_37" x="20" y="36" width="2" height="2"/>
<path id="Path_34" d="M24,30h2v-2h-4v2h-2v2h2v2h2V30z"/>
<path id="Path_35" d="M24,20h-2v2h4v-4h4v-6h2v-2h-4V6h-2V4h2V2h-2V0h-4v2h-2v2h4v2h-2v4h-2v6h2v-4h2v2h2v-2h2v4h-6v2h2V20z"/>
<rect id="Rectangle_38" x="24" y="34" width="2" height="2"/>
<rect id="Rectangle_39" x="28" y="4" width="2" height="2"/>
<path id="Path_36" d="M28,24h-4v2h4v2h2v-6h-2V24z"/>
<rect id="Rectangle_40" x="30" y="6" width="2" height="2"/>
<rect id="Rectangle_41" x="30" y="20" width="2" height="2"/>
<path id="Path_37" d="M32,30h4v-2h-2v-2h-2v2h-2v2H32z"/>
<path id="Path_38" d="M34,4V0h-2v2h-2v2H34z"/>
<rect id="Rectangle_42" x="32" y="8" width="2" height="2"/>
<path id="Path_39" d="M32,16h2v-4h-2V16z"/>
<rect id="Rectangle_43" x="36" y="36" width="2" height="2"/>
<path id="Path_40" d="M42,4h-2v6h6V4H42z"/>
<path id="Path_41" d="M42,28h-2v-2h2v-2h-2v-2h4v-2h-4v-2h6v-2H36v2h2v2h-2v-2h-2v4h-2v2h4v-2h2v2h-2v2h2v6H26v2h2v2h4v4h-2v2h2v2h6
	v2h-6v-2h-4v-4h-2v-2h-2v4h2v2h-4v2h-2v-4h2v-2h-2v-2h-4v8h2v2h-2v2h10v-2h-2v-2h4v2h10v2h12V40h-2v-2h2v-2h-4v-4h-2v2h-2v-2h-2v-2
	h2v2h2v-6h-2V28z M48,46v2h-4v-2h-4v-2h2v-2h2v4h2v-2h2V46z M46,40h-2v-2h2V40z M40,36v4h-6v-6h6V36z"/>
<path id="Path_42" d="M48,18h-2v4h2v2h-4v2h2v4h2v2h2v-4h-2v-2h2v-6h-2V18z"/>
<path id="Path_43" d="M48,0H36v14h14V0H48z M48,4v8H38V2h10V4z"/>
</svg>
