<?xml version="1.0" encoding="utf-8"?>
<svg version="1.1" xmlns="http://www.w3.org/2000/svg" xmlns:xlink="http://www.w3.org/1999/xlink" x="0px" y="0px"
	 viewBox="0 0 32.3 32.4" style="enable-background:new 0 0 32.3 32.4;" xml:space="preserve">
<g id="icon1" transform="translate(181 79)">
	<path id="XMLID_63_" style="fill:none;stroke:#003A95;stroke-width:0.971;stroke-linecap:round;stroke-miterlimit:10;" d="
		M-149.9-61.1c-0.7,8.4-8.1,14.7-16.6,14c-8.4-0.7-14.7-8.1-14-16.6c0.6-7.5,6.7-13.5,14.2-14"/>
	<path id="XMLID_53_" style="fill:none;stroke:#003A95;stroke-width:0.971;stroke-miterlimit:10;" d="M-162.2-78l-2.9,15
		c0,0.2,0.1,0.4,0.3,0.3l15-2.3c0.4-0.1,0.7-0.5,0.6-0.9c-1.3-6.2-6.1-11.2-12.3-12.6C-161.8-78.6-162.1-78.3-162.2-78
		C-162.2-78-162.2-78-162.2-78z"/>
</g>
</svg>
