<?xml version="1.0" encoding="utf-8"?>
<svg version="1.1" xmlns="http://www.w3.org/2000/svg" xmlns:xlink="http://www.w3.org/1999/xlink" x="0px" y="0px"
	 viewBox="0 0 30.4 30.4" style="enable-background:new 0 0 30.4 30.4;" xml:space="preserve">
<g id="icon2" transform="translate(181 77)">
	<path id="XMLID_102_" style="fill:#003A95;" d="M-166.5-56.7v0.6l0,0v1.9h9.5V-56l0,0v-0.6c0-0.6-0.4-1-1.4-1h-6.6
		C-166.2-57.7-166.5-57.2-166.5-56.7z M-165.8-55.4L-165.8-55.4l0.1-0.9c0.1-0.4,0.5-0.8,0.9-0.7h6.3c0.4-0.1,0.8,0.3,0.9,0.7v0.9
		l0,0v0.4h-8.1L-165.8-55.4z"/>
	<path id="XMLID_99_" style="fill:#003A95;" d="M-175.8-60.2c-0.5,0.8-0.4,1.8,0.3,2.5c0.7,0.7,1.8,0.7,2.5,0l7.5-8.2l1.5,1.4
		c0,0-0.6,0.6,0.4,1.6s1.7,0.4,1.7,0.4l5.2-5.4c0,0,0.6-0.7-0.4-1.7s-1.7-0.3-1.7-0.3l-5.2-4.9c0,0,0.6-0.7-0.4-1.7
		s-1.7-0.3-1.7-0.3l-5.2,5.4c0,0-0.6,0.7,0.4,1.6c1,1,1.7,0.4,1.7,0.4l1.5,1.4L-175.8-60.2z M-175-58.3c-0.4-0.4-0.5-1.1,0-1.6
		c0,0,0,0,0,0l8.5-8.1l-2.7-2.5l-0.1,0.1c-0.3,0.2-0.6,0.2-0.9,0l0,0c-0.2-0.2-0.3-0.6,0-0.9c0,0,0,0,0,0l4.4-4.5
		c0.2-0.2,0.7-0.3,0.9,0l0,0c0.2,0.2,0.3,0.5,0.1,0.8c0,0-0.1,0.1-0.1,0.1l-0.2,0.2l6.4,6l0.1-0.1c0.2-0.2,0.7-0.3,0.9,0l0,0
		c0.2,0.2,0.3,0.5,0.1,0.8c0,0-0.1,0.1-0.1,0.1l-4.4,4.5c-0.2,0.2-0.5,0.3-0.8,0.1c0,0-0.1-0.1-0.1-0.1l0,0c-0.2-0.2-0.3-0.6,0-0.9
		c0,0,0,0,0,0l0.2-0.2l-2.7-2.5l-7.9,8.7C-173.8-57.8-174.5-57.8-175-58.3C-175-58.2-175-58.3-175-58.3z"/>
	<path id="XMLID_98_" style="fill:none;stroke:#003A95;stroke-width:0.971;stroke-linecap:round;stroke-miterlimit:10;" d="
		M-159.8-75.3h4.5c2.3,0,4.2,1.9,4.2,4.2v15.7c0,2.3-1.9,4.2-4.2,4.2h-12.8l-4.2,4c-0.2,0.2-0.6,0-0.6-0.3v-3.7h-3.4
		c-2.3,0-4.2-1.9-4.2-4.2v-15.7c0-2.3,1.9-4.2,4.2-4.2h4.6"/>
</g>
</svg>
