<?xml version="1.0" encoding="utf-8"?>
<svg version="1.1" xmlns="http://www.w3.org/2000/svg" xmlns:xlink="http://www.w3.org/1999/xlink" x="0px" y="0px"
	 viewBox="0 0 36.1 29" style="enable-background:new 0 0 36.1 29;" xml:space="preserve">
<g id="icon3" transform="translate(181 77)">
	<path id="XMLID_35_" style="fill:none;stroke:#003A95;stroke-width:0.971;stroke-linecap:round;stroke-miterlimit:10;" d="
		M-161.6-48.7h-15.5c-1.9,0-3.4-1.9-3.4-4.3v-19.2c0-2.4,1.5-4.3,3.4-4.3h25.8c1.9,0,3.4,1.9,3.4,4.3v4.9"/>
	<path id="XMLID_29_" style="fill:#003A95;stroke:#003A95;" d="M-174.9-68.2v-0.7c0-0.2,0.2-0.4,0.4-0.4h13.4c0.2,0,0.4,0.2,0.4,0.4
		v0.8c0,0.2-0.2,0.4-0.4,0.4h-13.4C-174.7-67.8-174.9-68-174.9-68.2z"/>
	<path id="XMLID_16_" style="fill:#003A95;stroke:#003A95;" d="M-174.9-63.7v-0.8c0-0.2,0.2-0.4,0.4-0.4h13.4c0.2,0,0.4,0.2,0.4,0.4
		v0.8c0,0.2-0.2,0.4-0.4,0.4h-13.4C-174.7-63.3-174.9-63.5-174.9-63.7z"/>
	<path id="XMLID_11_" style="fill:#003A95;stroke:#003A95;" d="M-174.9-58.9v-0.8c0-0.2,0.2-0.4,0.4-0.4h7.9c0.2,0,0.4,0.2,0.4,0.4
		v0.8c0,0.2-0.2,0.4-0.4,0.4h-7.9C-174.7-58.5-174.9-58.6-174.9-58.9C-174.9-58.9-174.9-58.9-174.9-58.9z"/>
	<path id="XMLID_10_" style="fill:none;stroke:#003A95;stroke-width:0.971;stroke-miterlimit:10;" d="M-148-55.8l2.2,1.6l-7.7,5.6
		l-7.6-5.4l2.1-1.6"/>
	<path id="XMLID_8_" style="fill:none;stroke:#003A95;stroke-width:0.971;stroke-miterlimit:10;" d="M-148-59.2l2.3,1.6l-7.8,5.6
		l-7.6-5.4l2.3-1.7"/>
	<path id="XMLID_7_" style="fill:none;stroke:#003A95;stroke-width:0.971;stroke-miterlimit:10;" d="M-153.5-55.4l-7.6-5.4l7.8-5.6
		l7.6,5.4L-153.5-55.4z"/>
</g>
</svg>
