<?xml version="1.0" encoding="utf-8"?>
<svg version="1.1" xmlns="http://www.w3.org/2000/svg" xmlns:xlink="http://www.w3.org/1999/xlink" x="0px" y="0px"
	 viewBox="0 0 35.8 28.2" style="enable-background:new 0 0 35.8 28.2;" xml:space="preserve">
<g id="icon6" transform="translate(181 78)">
	<path id="XMLID_94_" style="opacity:0.8;fill:#003A95;enable-background:new    ;" d="M-158.5-65.3l3.3-3.4
		c0.2-0.1,0.2-0.4,0.1-0.5c0,0,0-0.1-0.1-0.1l-0.3-0.3c-0.1-0.2-0.4-0.2-0.5-0.1c0,0-0.1,0-0.1,0.1l-3.9,4"/>
	<path id="XMLID_85_" style="fill:none;stroke:#003A95;stroke-width:0.971;stroke-linecap:round;stroke-miterlimit:10;" d="
		M-166.3-50.3h-11c-1.8,0-3.2-1.9-3.2-4.2v-18.8c0-2.3,1.4-4.2,3.2-4.2h24.3c1.8,0,3.2,1.9,3.2,4.2v4.8"/>
	<path id="XMLID_82_" style="opacity:0.8;fill:#003A95;enable-background:new    ;" d="M-163.1-62.4l-0.9,1l-6.2-2.4h-0.2
		c-0.1,0-0.2,0-0.3,0.1l-5,5.2c-0.2,0.1-0.2,0.4-0.1,0.5c0,0,0,0.1,0.1,0.1l0.3,0.4c0.1,0.2,0.4,0.2,0.5,0.1c0,0,0.1,0,0.1-0.1
		l4.6-4.8l6,2.3c0.2,0.1,0.4,0.1,0.6,0l0.4-0.4"/>
	<path id="XMLID_76_" style="fill:none;stroke:#003A95;stroke-width:0.971;stroke-miterlimit:10;" d="M-147.6-50.3h-14
		c-1,0-1.9-0.9-1.9-1.9v-11.2c0-1,0.9-1.9,1.9-1.9h14c1,0,1.9,0.9,1.9,1.9c0,0,0,0,0,0v11.1c0.1,1-0.7,1.9-1.7,2
		C-147.5-50.3-147.6-50.3-147.6-50.3z"/>
	<path id="XMLID_73_" style="fill:#003A95;" d="M-156.5-54.1h-1.1c-0.2,0-0.4-0.2-0.4-0.4v-2.6c0-0.2,0.2-0.4,0.4-0.4h1.1
		c0.2,0,0.4,0.2,0.4,0.4v2.6C-156.1-54.3-156.2-54.1-156.5-54.1C-156.5-54.1-156.5-54.1-156.5-54.1z"/>
	<path id="XMLID_70_" style="fill:#003A95;" d="M-153.6-54.1h-1c-0.2,0-0.4-0.2-0.4-0.4v-3.8c0-0.2,0.2-0.4,0.4-0.4h1
		c0.2,0,0.4,0.2,0.4,0.4v3.8C-153.2-54.3-153.4-54.1-153.6-54.1z"/>
	<path id="XMLID_64_" style="fill:#003A95;" d="M-150.8-54.1h-1c-0.3,0-0.5-0.2-0.5-0.4c0,0,0,0,0-0.1v-5.3c0-0.3,0.2-0.5,0.4-0.5
		c0,0,0,0,0.1,0h1c0.3,0,0.5,0.2,0.5,0.4c0,0,0,0,0,0.1v5.4C-150.3-54.3-150.6-54.1-150.8-54.1z"/>
	<path id="XMLID_79_" style="fill:none;" d="M-146.7-50.7h-15.7c-0.6,0-1.1-0.5-1.1-1.1v-12.4c0-0.6,0.5-1.1,1.1-1.1h15.6
		c0.6,0,1.1,0.5,1.1,1.1v12.4c0.1,0.5-0.3,1-0.8,1.1C-146.6-50.7-146.7-50.7-146.7-50.7z"/>
</g>
</svg>
