<?xml version="1.0" encoding="utf-8"?>
<svg version="1.1" xmlns="http://www.w3.org/2000/svg" xmlns:xlink="http://www.w3.org/1999/xlink" x="0px" y="0px"
	 viewBox="0 0 35 26.3" style="enable-background:new 0 0 35 26.3;" xml:space="preserve">
<g id="icon5" transform="translate(181 77.5)">
	<path id="XMLID_50_" style="fill:none;stroke:#003A95;stroke-width:0.971;stroke-linecap:round;stroke-miterlimit:10;" d="
		M-164.9-63.5c2.7-1.4,4.3-4.4,3.9-7.4c-0.6-3.9-4.2-6.7-8.1-6.1c-3.9,0.6-6.7,4.2-6.1,8.1c0.3,2.3,1.8,4.3,3.8,5.4
		c-5.3,1.4-9.1,6.3-9.1,11.8h24.6C-155.8-57.2-159.6-62.1-164.9-63.5z"/>
	<path id="XMLID_48_" style="fill:none;stroke:#003A95;stroke-width:0.971;stroke-linecap:round;stroke-miterlimit:10;" d="
		M-153-52.2h6.5c-0.1-5.1-3.5-9.6-8.4-11c3.3-1.6,4.6-5.6,3-8.9c-1-2-2.9-3.4-5.2-3.6c-1.7-0.2-3.4,0.3-4.8,1.3"/>
</g>
</svg>
