<?xml version="1.0" encoding="utf-8"?>
<svg version="1.1" xmlns="http://www.w3.org/2000/svg" xmlns:xlink="http://www.w3.org/1999/xlink" x="0px" y="0px"
	 viewBox="0 0 30 15" style="enable-background:new 0 0 30 15;" xml:space="preserve">
<rect x="14" y="0.5" style="fill:none;" width="15.5" height="14"/>
<polygon style="fill:#FF8100;" points="14,0 14,0.5 29.5,0.5 29.5,14.5 14,14.5 14,15 30,15 30,0 "/>
<polygon style="fill:#FF8100;" points="14,0.5 14,0 0,0 0,15 14,15 14,14.5 "/>
<path id="Path_73" style="fill:#FFFFFF;" d="M2.3,11.7c-0.2,0-0.3,0.1-0.3,0.3c0,0.2,0.1,0.3,0.3,0.3c0,0,0,0,0,0h9.2
	c0.2,0,0.3-0.1,0.3-0.3c0-0.2-0.1-0.3-0.3-0.3c0,0,0,0,0,0h-0.6V7.7c0.5-0.2,0.8-0.6,0.8-1.1l-0.8-2.2H3L2.2,6.6
	c0,0.5,0.3,1,0.8,1.1v3.9H2.3z M8.5,7.8C9,7.6,9.3,7.1,9.3,6.6c0,0.6,0.4,1.1,1,1.2v3.8H8.5V7.8z M3.5,7.8c0.6-0.1,1-0.6,1-1.2
	c0,0.7,0.5,1.2,1.1,1.2s1.2-0.5,1.2-1.1c0,0,0-0.1,0-0.1c0,0.7,0.5,1.2,1.2,1.2h0v3.8H3.5V7.8z M10.6,3.9c0.2,0,0.4-0.1,0.4-0.3
	c0,0,0,0,0,0c0-0.2-0.2-0.3-0.4-0.3H3.1c-0.2,0-0.4,0.1-0.4,0.3c0,0.2,0.2,0.3,0.4,0.3L10.6,3.9L10.6,3.9z"/>
<path style="fill:#FF8100;" d="M22.8,3.8h3.7v0.7h-7.4v2.2c0,2.2-0.4,3.9-1.1,5.2l-0.5-0.5c0.6-1.1,0.9-2.7,0.9-4.8V3.8H22
	c-0.2-0.3-0.3-0.6-0.5-0.9l0.8-0.1C22.4,3.1,22.6,3.4,22.8,3.8z M23,4.9v1.2h3.3v0.7H23v1.5h2.6V12h-0.7v-0.5h-4.2V12h-0.7V8.3h2.3
	V4.9H23z M24.9,10.8V8.9h-4.2v1.9H24.9z"/>
</svg>
